<svg width="219" height="24" viewBox="0 0 219 24" fill="none" xmlns="http://www.w3.org/2000/svg">
<path d="M15.7656 23H0.078125V0.59375H4.5625V18.5156H15.7656V23ZM22.5938 23H18.1094V0.59375H22.5938V23ZM43.8906 0.59375L36.5312 23H32.0469L24.7188 0.59375H29.8125L34.2812 15.5469L38.7656 0.59375H43.8906ZM61.4062 23H46.0469V0.59375H61.4062V5.07812H50.5312V9.5625H57.8906V14.0469H50.5312V18.5156H61.4062V23ZM69.0312 5.07812V14.0469H73.5156C74.1302 14.0469 74.7083 13.9323 75.25 13.7031C75.7917 13.4635 76.2656 13.1406 76.6719 12.7344C77.0781 12.3281 77.3958 11.8542 77.625 11.3125C77.8646 10.7604 77.9844 10.1771 77.9844 9.5625C77.9844 8.94792 77.8646 8.36979 77.625 7.82812C77.3958 7.27604 77.0781 6.79688 76.6719 6.39062C76.2656 5.98438 75.7917 5.66667 75.25 5.4375C74.7083 5.19792 74.1302 5.07812 73.5156 5.07812H69.0312ZM69.0312 23H64.5469V0.59375H73.5156C74.3385 0.59375 75.1302 0.703125 75.8906 0.921875C76.651 1.13021 77.3594 1.43229 78.0156 1.82812C78.6823 2.21354 79.2865 2.68229 79.8281 3.23438C80.3802 3.77604 80.849 4.38021 81.2344 5.04688C81.6302 5.71354 81.9323 6.42708 82.1406 7.1875C82.3594 7.94792 82.4688 8.73958 82.4688 9.5625C82.4688 10.3333 82.3698 11.0833 82.1719 11.8125C81.9844 12.5417 81.7083 13.2344 81.3438 13.8906C80.9896 14.5469 80.5521 15.151 80.0312 15.7031C79.5104 16.2552 78.9271 16.7344 78.2812 17.1406L80.7656 23H76L74.0469 18.4844L69.0312 18.5156V23ZM89.9062 5.07812V14.0469H94.3906C95.0052 14.0469 95.5833 13.9323 96.125 13.7031C96.6667 13.4635 97.1406 13.1406 97.5469 12.7344C97.9531 12.3281 98.2708 11.8542 98.5 11.3125C98.7396 10.7604 98.8594 10.1771 98.8594 9.5625C98.8594 8.94792 98.7396 8.36979 98.5 7.82812C98.2708 7.27604 97.9531 6.79688 97.5469 6.39062C97.1406 5.98438 96.6667 5.66667 96.125 5.4375C95.5833 5.19792 95.0052 5.07812 94.3906 5.07812H89.9062ZM89.9062 23H85.4219V0.59375H94.3906C95.2135 0.59375 96.0052 0.703125 96.7656 0.921875C97.526 1.13021 98.2344 1.43229 98.8906 1.82812C99.5573 2.21354 100.161 2.68229 100.703 3.23438C101.255 3.77604 101.724 4.38021 102.109 5.04688C102.505 5.71354 102.807 6.42708 103.016 7.1875C103.234 7.94792 103.344 8.73958 103.344 9.5625C103.344 10.7917 103.109 11.9531 102.641 13.0469C102.172 14.1302 101.531 15.0781 100.719 15.8906C99.9062 16.7031 98.9531 17.3438 97.8594 17.8125C96.776 18.2812 95.6198 18.5156 94.3906 18.5156H89.9062V23ZM127.938 11.8906C127.938 12.9531 127.797 13.9792 127.516 14.9688C127.245 15.9479 126.859 16.8698 126.359 17.7344C125.859 18.5885 125.255 19.3698 124.547 20.0781C123.839 20.7865 123.057 21.3958 122.203 21.9062C121.349 22.4062 120.427 22.7917 119.438 23.0625C118.448 23.3438 117.422 23.4844 116.359 23.4844C115.297 23.4844 114.271 23.3438 113.281 23.0625C112.302 22.7917 111.38 22.4062 110.516 21.9062C109.661 21.3958 108.88 20.7865 108.172 20.0781C107.464 19.3698 106.854 18.5885 106.344 17.7344C105.844 16.8698 105.453 15.9479 105.172 14.9688C104.901 13.9792 104.766 12.9531 104.766 11.8906C104.766 10.8281 104.901 9.80208 105.172 8.8125C105.453 7.82292 105.844 6.90104 106.344 6.04688C106.854 5.19271 107.464 4.41146 108.172 3.70312C108.88 2.99479 109.661 2.39062 110.516 1.89062C111.38 1.39062 112.302 1.00521 113.281 0.734375C114.271 0.453125 115.297 0.3125 116.359 0.3125C117.422 0.3125 118.448 0.453125 119.438 0.734375C120.427 1.00521 121.349 1.39062 122.203 1.89062C123.057 2.39062 123.839 2.99479 124.547 3.70312C125.255 4.41146 125.859 5.19271 126.359 6.04688C126.859 6.90104 127.245 7.82292 127.516 8.8125C127.797 9.80208 127.938 10.8281 127.938 11.8906ZM123.484 11.8906C123.484 10.9115 123.297 9.98958 122.922 9.125C122.547 8.25 122.036 7.49479 121.391 6.85938C120.755 6.21354 120 5.70312 119.125 5.32812C118.26 4.95312 117.339 4.76562 116.359 4.76562C115.37 4.76562 114.443 4.95312 113.578 5.32812C112.714 5.70312 111.958 6.21354 111.312 6.85938C110.667 7.49479 110.156 8.25 109.781 9.125C109.406 9.98958 109.219 10.9115 109.219 11.8906C109.219 12.8698 109.406 13.7917 109.781 14.6562C110.156 15.5104 110.667 16.2604 111.312 16.9062C111.958 17.5521 112.714 18.0625 113.578 18.4375C114.443 18.8125 115.37 19 116.359 19C117.339 19 118.26 18.8125 119.125 18.4375C120 18.0625 120.755 17.5521 121.391 16.9062C122.036 16.2604 122.547 15.5104 122.922 14.6562C123.297 13.7917 123.484 12.8698 123.484 11.8906ZM152.844 11.8906C152.844 12.9531 152.703 13.9792 152.422 14.9688C152.151 15.9479 151.766 16.8698 151.266 17.7344C150.766 18.5885 150.161 19.3698 149.453 20.0781C148.745 20.7865 147.964 21.3958 147.109 21.9062C146.255 22.4062 145.333 22.7917 144.344 23.0625C143.354 23.3438 142.328 23.4844 141.266 23.4844C140.203 23.4844 139.177 23.3438 138.188 23.0625C137.208 22.7917 136.286 22.4062 135.422 21.9062C134.568 21.3958 133.786 20.7865 133.078 20.0781C132.37 19.3698 131.76 18.5885 131.25 17.7344C130.75 16.8698 130.359 15.9479 130.078 14.9688C129.807 13.9792 129.672 12.9531 129.672 11.8906C129.672 10.8281 129.807 9.80208 130.078 8.8125C130.359 7.82292 130.75 6.90104 131.25 6.04688C131.76 5.19271 132.37 4.41146 133.078 3.70312C133.786 2.99479 134.568 2.39062 135.422 1.89062C136.286 1.39062 137.208 1.00521 138.188 0.734375C139.177 0.453125 140.203 0.3125 141.266 0.3125C142.328 0.3125 143.354 0.453125 144.344 0.734375C145.333 1.00521 146.255 1.39062 147.109 1.89062C147.964 2.39062 148.745 2.99479 149.453 3.70312C150.161 4.41146 150.766 5.19271 151.266 6.04688C151.766 6.90104 152.151 7.82292 152.422 8.8125C152.703 9.80208 152.844 10.8281 152.844 11.8906ZM148.391 11.8906C148.391 10.9115 148.203 9.98958 147.828 9.125C147.453 8.25 146.943 7.49479 146.297 6.85938C145.661 6.21354 144.906 5.70312 144.031 5.32812C143.167 4.95312 142.245 4.76562 141.266 4.76562C140.276 4.76562 139.349 4.95312 138.484 5.32812C137.62 5.70312 136.865 6.21354 136.219 6.85938C135.573 7.49479 135.062 8.25 134.688 9.125C134.312 9.98958 134.125 10.9115 134.125 11.8906C134.125 12.8698 134.312 13.7917 134.688 14.6562C135.062 15.5104 135.573 16.2604 136.219 16.9062C136.865 17.5521 137.62 18.0625 138.484 18.4375C139.349 18.8125 140.276 19 141.266 19C142.245 19 143.167 18.8125 144.031 18.4375C144.906 18.0625 145.661 17.5521 146.297 16.9062C146.943 16.2604 147.453 15.5104 147.828 14.6562C148.203 13.7917 148.391 12.8698 148.391 11.8906ZM171.484 23H155.797V0.59375H160.281V18.5156H171.484V23ZM187.281 23H182.797V0.59375H198.484V5.07812H187.281V9.5625H194V14.0469H187.281V23ZM218.188 20.7031C217.146 21.599 215.979 22.2865 214.688 22.7656C213.396 23.2448 212.057 23.4844 210.672 23.4844C209.609 23.4844 208.583 23.3438 207.594 23.0625C206.615 22.7917 205.693 22.4062 204.828 21.9062C203.974 21.3958 203.193 20.7865 202.484 20.0781C201.776 19.3698 201.167 18.5885 200.656 17.7344C200.156 16.8698 199.766 15.9479 199.484 14.9688C199.214 13.9792 199.078 12.9531 199.078 11.8906C199.078 10.8281 199.214 9.80208 199.484 8.8125C199.766 7.82292 200.156 6.90104 200.656 6.04688C201.167 5.18229 201.776 4.39583 202.484 3.6875C203.193 2.97917 203.974 2.375 204.828 1.875C205.693 1.36458 206.615 0.973958 207.594 0.703125C208.583 0.421875 209.609 0.28125 210.672 0.28125C212.057 0.28125 213.396 0.520833 214.688 1C215.979 1.46875 217.146 2.15625 218.188 3.0625L215.812 6.96875C215.156 6.26042 214.38 5.71875 213.484 5.34375C212.589 4.95833 211.651 4.76562 210.672 4.76562C209.682 4.76562 208.755 4.95312 207.891 5.32812C207.026 5.70312 206.271 6.21354 205.625 6.85938C204.979 7.49479 204.469 8.25 204.094 9.125C203.719 9.98958 203.531 10.9115 203.531 11.8906C203.531 12.8698 203.719 13.7917 204.094 14.6562C204.469 15.5104 204.979 16.2604 205.625 16.9062C206.271 17.5521 207.026 18.0625 207.891 18.4375C208.755 18.8125 209.682 19 210.672 19C211.651 19 212.589 18.8125 213.484 18.4375C214.38 18.0521 215.156 17.5052 215.812 16.7969L218.188 20.7031Z" fill="#F9F3F4"/>
</svg>
