<svg width="136" height="56" viewBox="0 0 136 56" fill="none" xmlns="http://www.w3.org/2000/svg">
<rect width="136" height="56" rx="4" fill="#B91F26"/>
<g clip-path="url(#clip0_1_388)">
<path d="M108.149 26.7705V19.4355H113.296V26.7663H121V31.6549H113.296V38.9689H108.149V31.6549H100.423V26.7705H108.149Z" fill="#F9F3F4"/>
<path d="M85.1635 21.4363H88.4029C90.3533 21.4363 91.5998 22.4367 91.5998 24.1812C91.5998 26.0811 90.3533 27.3169 88.4029 27.3169H85.1635V21.4363ZM90.7391 31.1421C94.093 30.7175 96.8617 27.8592 96.8617 24.2232C96.8617 19.5069 93.6223 16.9176 88.4029 16.9176H79.978V40.6587H85.1678V31.1421L91.6041 40.6503H97.6079L90.7391 31.1421Z" fill="#F9F3F4"/>
<path d="M48.814 21.5918V16.9134H33.0158V21.5918H38.2818V40.6503H43.5522V21.5918H48.814Z" fill="#F9F3F4"/>
<path d="M23.268 25.6524C21.7077 24.9546 21.1183 24.1854 21.1183 23.1807C21.1183 22.0164 22.0935 21.0496 23.6538 21.0916C25.0149 21.1253 26.0749 21.8609 26.8169 23.6053L31.3028 21.6297C30.0605 18.4645 27.525 16.6108 23.4334 16.6108C19.1043 16.6108 15.9074 19.4355 15.9074 23.2186C15.9074 25.8079 17.1963 27.855 20.2364 29.3682L23.5902 31.0328C25.4558 31.966 26.359 32.6553 26.359 34.0046C26.359 35.4716 25.1548 36.5183 23.5902 36.5183C21.9112 36.5183 20.3933 35.5851 19.6894 33.5044L15 34.8579C16.0897 38.7671 19.329 41.0496 23.5436 41.0496C28.1058 41.0496 31.6166 38.1492 31.6166 33.9752C31.6166 30.7638 29.8654 28.6368 26.5031 27.1362L23.268 25.6524Z" fill="#F9F3F4"/>
<path d="M78.5703 24.4502H66.4185L62.6576 13L58.8967 24.4502H46.7491L56.4969 31.5414C56.4969 31.5414 61.2626 28.4309 67.0375 27.2581C58.5194 33.4918 53.8935 39.6751 53.8935 39.6751L52.8293 43L62.6576 35.9256L72.4902 43L68.7378 31.5414L78.5703 24.4502Z" fill="url(#paint0_linear_1_388)"/>
</g>
<defs>
<linearGradient id="paint0_linear_1_388" x1="51.5442" y1="41.7262" x2="73.6432" y2="19.4555" gradientUnits="userSpaceOnUse">
<stop offset="0.28" stop-color="#FA1660"/>
<stop offset="0.78" stop-color="#FF7D17"/>
</linearGradient>
<clipPath id="clip0_1_388">
<rect width="106" height="30" fill="white" transform="translate(15 13)"/>
</clipPath>
</defs>
</svg>
